Coordinates
version=1
nRows=24
nColumns=24
inDegrees=yes

Units are S.I. units (second, meters, Newtons, ...)
Angles are in degrees.

endheader
time	pelvis_tilt	pelvis_list	pelvis_rotation	pelvis_tx	pelvis_ty	pelvis_tz	hip_flexion_r	hip_adduction_r	hip_rotation_r	knee_angle_r	ankle_angle_r	subtalar_angle_r	mtp_angle_r	hip_flexion_l	hip_adduction_l	hip_rotation_l	knee_angle_l	ankle_angle_l	subtalar_angle_l	mtp_angle_l	lumbar_extension	lumbar_bending	lumbar_rotation
      4.49500000	    -12.53400399	     -0.87924798	     -4.43456129	      0.18518355	     -0.00559067	     -0.00400757	      5.11333183	      5.95676370	      7.68156992	     -3.65067715	     -0.15620389	      1.70522091	      9.41349182	     34.87693153	     -8.94909986	    -16.08859055	    -47.12093540	     -8.38030876	      3.66915552	     18.85729011	     10.95310223	      3.10637435	      8.39675119
      4.50000000	    -12.50741095	     -0.75199837	     -4.58978188	      0.19036418	     -0.00598837	     -0.00382580	      4.76321796	      5.80964447	      7.84172571	     -3.64314747	      0.06489087	      1.75688080	      9.52023221	     35.07430596	     -8.75796777	    -16.29731435	    -45.91974567	     -8.14266403	      3.45092401	     18.33945785	     10.88688882	      2.98624288	      8.59625060
      4.50500000	    -12.45032946	     -0.62708248	     -4.72472165	      0.19555695	     -0.00638903	     -0.00366138	      4.37931837	      5.65932187	      7.96283969	     -3.63288016	      0.29029661	      1.81064787	      9.67129087	     35.22126825	     -8.55353492	    -16.49536850	    -44.68525028	     -7.88620789	      3.35765295	     17.81872521	     10.78828674	      2.85614115	      8.78006051
      4.51000000	    -12.52294639	     -0.52892139	     -4.83092552	      0.20076212	     -0.00695652	     -0.00354267	      4.14016109	      5.54479502	      8.08714702	     -3.63723084	      0.50795530	      1.83356568	      9.74824119	     35.50955166	     -8.36351510	    -16.64511313	    -43.41202637	     -7.75197436	      3.25034948	     17.55994507	     10.83498670	      2.75472870	      8.88297927
      4.51500000	    -12.46553349	     -0.40502644	     -5.00943317	      0.20593782	     -0.00739895	     -0.00338314	      3.77157586	      5.39355542	      8.22976774	     -3.65313969	      0.75633949	      1.93233210	      9.89051564	     35.60955519	     -8.18023545	    -16.94711100	    -42.10062306	     -7.58612514	      3.11875343	     17.12834385	     10.72950867	      2.64035818	      9.09636965
      4.52000000	    -12.52050582	     -0.31347118	     -5.08435532	      0.21112850	     -0.00799867	     -0.00335214	      3.52287884	      5.27720907	      8.31355328	     -3.67186545	      0.97944629	      1.95192103	      9.97847171	     35.84777398	     -7.96542300	    -17.07682157	    -40.76182655	     -7.47379248	      3.20343451	     16.90478341	     10.74486639	      2.54337286	      9.17800479
      4.52500000	    -12.41551965	     -0.18788328	     -5.24305799	      0.21632628	     -0.00842551	     -0.00326286	      3.10444140	      5.10745805	      8.42554637	     -3.68516886	      1.22028759	      2.09011827	     10.16962861	     35.85419142	     -7.74785735	    -17.36126741	    -39.37670686	     -7.31456237	      3.28685858	     16.48224117	     10.58637726	      2.41971115	      9.39319744
      4.53000000	    -12.45824842	     -0.09092997	     -5.35335578	      0.22157203	     -0.00906099	     -0.00320402	      2.84672797	      4.98383802	      8.51608775	     -3.71294686	      1.45620023	      2.15117397	     10.29355552	     36.02756029	     -7.54493601	    -17.59915927	    -37.97546793	     -7.24523756	      3.43609714	     16.24452700	     10.59886647	      2.31814846	      9.48510702
      4.53500000	    -12.46344869	      0.01310739	     -5.46975451	      0.22677456	     -0.00965262	     -0.00316172	      2.56129658	      4.84514423	      8.60506539	     -3.75662843	      1.69072027	      2.24849770	     10.43065204	     36.13797980	     -7.32423804	    -17.82579815	    -36.53304827	     -7.22305113	      3.68945838	     16.02328317	     10.55915128	      2.21057493	      9.61535111
      4.54000000	    -12.55271591	      0.08079216	     -5.51793195	      0.23199835	     -0.01039949	     -0.00319481	      2.36663840	      4.75403651	      8.64864446	     -3.81463966	      1.92669294	      2.26258054	     10.51398495	     36.35209858	     -7.10239913	    -17.98043733	    -35.08854637	     -7.25831496	      4.00105809	     15.89587488	     10.60921798	      2.12794088	      9.64027308
      4.54500000	    -12.53854262	      0.19690898	     -5.66755961	      0.23724910	     -0.01098160	     -0.00314763	      2.06508624	      4.59355201	      8.74155423	     -3.86497306	      2.16075570	      2.44433651	     10.65905838	     36.38737770	     -6.87771753	    -18.28128132	    -33.57135456	     -7.34260081	      4.36416117	     15.77267867	     10.55181476	      2.01415738	      9.80990968
      4.55000000	    -12.65100179	      0.25372035	     -5.69241135	      0.24251131	     -0.01178491	     -0.00325176	      1.89386801	      4.50937577	      8.76024046	     -3.92413039	      2.38673688	      2.46060103	     10.73713899	     36.59589055	     -6.63348799	    -18.39787004	    -32.07360580	     -7.48792085	      4.78405758	     15.70210047	     10.62829444	      1.93998153	      9.80295514
      4.55500000	    -12.63520634	      0.38142574	     -5.83640273	      0.24776512	     -0.01237117	     -0.00321733	      1.60687045	      4.32968799	      8.80937911	     -3.99916138	      2.62297746	      2.72418288	     10.91541435	     36.59204132	     -6.38765019	    -18.73837156	    -30.48469316	     -7.75236897	      5.26990836	     15.79691084	     10.56406812	      1.81137197	      9.96746382
      4.56000000	    -12.68279501	      0.47809980	     -5.90430171	      0.25305301	     -0.01307238	     -0.00327772	      1.38042366	      4.18699859	      8.79116959	     -4.07030363	      2.84885294	      2.91942874	     11.10147132	     36.66469272	     -6.11582684	    -18.95753936	    -28.88315831	     -8.10619293	      5.76259822	     15.99980148	     10.57245584	      1.69828376	     10.02202434
      4.56500000	    -12.75753834	      0.57234402	     -5.97764662	      0.25834680	     -0.01380562	     -0.00335498	      1.19049638	      4.04556660	      8.76436445	     -4.15343650	      3.06595574	      3.15158776	     11.30954147	     36.74975348	     -5.84383599	    -19.17738864	    -27.25475722	     -8.54095694	      6.28253704	     16.30737627	     10.60594979	      1.59359463	     10.08428581
      4.57000000	    -12.84362627	      0.66679837	     -6.04377441	      0.26365107	     -0.01455106	     -0.00343763	      1.01782369	      3.90215000	      8.70977982	     -4.24370342	      3.28040777	      3.41954116	     11.54822184	     36.83028846	     -5.55940325	    -19.37757859	    -25.59780743	     -9.05944059	      6.81659890	     16.71666173	     10.65239266	      1.48408322	     10.13349367
      4.57500000	    -12.94219214	      0.76347345	     -6.10722821	      0.26897032	     -0.01531077	     -0.00353996	      0.86353411	      3.75302090	      8.63418679	     -4.34108879	      3.48815659	      3.72455479	     11.81991262	     36.90620208	     -5.26140265	    -19.55617537	    -23.91445637	     -9.64147639	      7.35726317	     17.20240961	     10.71229527	      1.37433445	     10.17863099
      4.58000000	    -13.05096215	      0.86313776	     -6.17161004	      0.27431181	     -0.01607777	     -0.00364820	      0.72473225	      3.59729743	      8.54643625	     -4.44565363	      3.68920150	      4.06857035	     12.12042102	     36.97377826	     -4.95218446	    -19.70940614	    -22.21030295	    -10.26563450	      7.90240710	     17.73022980	     10.78455731	      1.26065780	     10.22575445
      4.58500000	    -13.16635201	      0.96949919	     -6.23630590	      0.27967261	     -0.01684810	     -0.00377009	      0.59903628	      3.43055211	      8.44149963	     -4.55843849	      3.88176600	      4.44968336	     12.45494614	     37.02816927	     -4.62617458	    -19.82732104	    -20.48515234	    -10.91855704	      8.43397317	     18.28603394	     10.86138799	      1.14156107	     10.27424830
      4.59000000	    -13.28946850	      1.08104740	     -6.30386723	      0.28505762	     -0.01762323	     -0.00389208	      0.48701316	      3.25553573	      8.33195302	     -4.67941368	      4.06464589	      4.85282095	     12.81299610	     37.07140933	     -4.28866243	    -19.89938717	    -18.74968344	    -11.56885478	      8.94761289	     18.80770273	     10.94921896	      1.01823232	     10.32565100
      4.59500000	    -13.48529883	      1.18337615	     -6.30752371	      0.29050118	     -0.01848762	     -0.00408485	      0.43420472	      3.09884364	      8.30585841	     -4.78436029	      4.21101728	      5.03978992	     12.99311512	     37.20402482	     -3.92188779	    -19.85514799	    -17.07730016	    -12.09781447	      9.49298081	     18.90617044	     11.11973557	      0.89459326	     10.28469083
      4.60000000	    -13.54531760	      1.31491766	     -6.46048166	      0.29590804	     -0.01917074	     -0.00408812	      0.29159830	      2.88954333	      8.10967775	     -4.95761440	      4.41169732	      5.73344086	     13.50015449	     37.11272864	     -3.60381244	    -19.90497859	    -15.28919848	    -12.74751143	      9.92874504	     19.55771382	     11.13642505	      0.75634871	     10.45957183
      4.60500000	    -13.67964020	      1.44412204	     -6.53448840	      0.30139187	     -0.01995110	     -0.00418161	      0.20432533	      2.68972817	      8.00212887	     -5.09792501	      4.54901640	      6.16456983	     13.95670900	     37.11062174	     -3.24197881	    -19.81162554	    -13.55724898	    -13.30107506	     10.30359877	     19.83377760	     11.24284971	      0.61087955	     10.51331756
      4.61000000	    -13.81329871	      1.56942317	     -6.62857752	      0.30689833	     -0.02072374	     -0.00422909	      0.12431472	      2.49615198	      7.91115218	     -5.25517640	      4.67263401	      6.59762277	     14.38130523	     37.09290306	     -2.90441591	    -19.69563372	    -11.86107078	    -13.75112532	     10.68858225	     19.91877109	     11.34636816	      0.46921012	     10.59474247
